# xmcd
#
# Track frame offsets:
#	150
#	23150
#	47900
#	77955
#	98280
#	121593
#	141393
#	170933
#	193135
#	210240
#	228207
#	252277
#	278824
#	302760
# Disc length: 4437 seconds
# Revision: 5
# Processed by: cddbd v1.5.1PL2 Copyright (c) Steve Scherf et al.
#
# Submitted via: libkcddb 0.21
#
DISCID=bb11530e
DTITLE=Metallica - Load
DYEAR=1900
DGENRE=Rock
TTITLE0=Ain't My Bitch
TTITLE1=2x4
TTITLE2=The House Jack Built
TTITLE3=Until It Sleeps
TTITLE4=King Of Nothing
TTITLE5=Hero Of The Day
TTITLE6=Bleeding Me
TTITLE7=Cure
TTITLE8=Poor Twisted Me
TTITLE9=Wasting My Hate
TTITLE10=Mama Said
TTITLE11=Thorn Within
TTITLE12=Ronnie
TTITLE13=The Outlaw Torn
EXTD=
EXTT0=
EXTT1=
EXTT2=
EXTT3=
EXTT4=
EXTT5=
EXTT6=
EXTT7=
EXTT8=
EXTT9=
EXTT10=
EXTT11=
EXTT12=
EXTT13=
PLAYORDER=
